<svg width="14" height="16" viewBox="0 0 14 16" fill="none" xmlns="http://www.w3.org/2000/svg">
<path fill-rule="evenodd" clip-rule="evenodd" d="M0 15C0 15.2652 0.105357 15.5196 0.292893 15.7071C0.48043 15.8946 0.734784 16 1 16L13 16C13.2652 16 13.5196 15.8946 13.7071 15.7071C13.8946 15.5196 14 15.2652 14 15C14 14.7348 13.8946 14.4804 13.7071 14.2929C13.5196 14.1054 13.2652 14 13 14L1 14C0.734784 14 0.48043 14.1054 0.292893 14.2929C0.105357 14.4804 0 14.7348 0 15ZM9.293 4.707C9.4816 4.88916 9.7342 4.98995 9.9964 4.98767C10.2586 4.9854 10.5094 4.88023 10.6948 4.69482C10.8802 4.50941 10.9854 4.2586 10.9877 3.9964C10.99 3.7342 10.8892 3.4816 10.707 3.293L7.707 0.292999C7.51947 0.105528 7.26516 0.000213623 7 0.000213623C6.73484 0.000213623 6.48053 0.105528 6.293 0.292999L3.293 3.293C3.19749 3.38525 3.12131 3.49559 3.0689 3.6176C3.01649 3.7396 2.9889 3.87082 2.98775 4.0036C2.9866 4.13638 3.0119 4.26806 3.06218 4.39095C3.11246 4.51385 3.18671 4.6255 3.2806 4.71939C3.3745 4.81329 3.48615 4.88754 3.60905 4.93782C3.73194 4.9881 3.86362 5.0134 3.9964 5.01225C4.12918 5.0111 4.2604 4.98351 4.3824 4.9311C4.50441 4.87869 4.61475 4.80251 4.707 4.707L6 3.414L6 11C6 11.2652 6.10536 11.5196 6.29289 11.7071C6.48043 11.8946 6.73478 12 7 12C7.26522 12 7.51957 11.8946 7.70711 11.7071C7.89464 11.5196 8 11.2652 8 11L8 3.414L9.293 4.707Z" fill="#109CF1"/>
</svg>
