<svg width="19" height="19" viewBox="0 0 19 19" fill="none" xmlns="http://www.w3.org/2000/svg">
<path d="M8.25 11.9167H10.0833V13.75H8.25V11.9167ZM8.25 4.58333H10.0833V10.0833H8.25V4.58333ZM9.1575 0C4.0975 0 0 4.10667 0 9.16667C0 14.2267 4.0975 18.3333 9.1575 18.3333C14.2267 18.3333 18.3333 14.2267 18.3333 9.16667C18.3333 4.10667 14.2267 0 9.1575 0ZM9.16667 16.5C5.115 16.5 1.83333 13.2183 1.83333 9.16667C1.83333 5.115 5.115 1.83333 9.16667 1.83333C13.2183 1.83333 16.5 5.115 16.5 9.16667C16.5 13.2183 13.2183 16.5 9.16667 16.5Z" fill="#F05851"/>
</svg>
