<svg width="62" height="61" viewBox="0 0 62 61" fill="none" xmlns="http://www.w3.org/2000/svg">
<path d="M60.1485 12.0419C62.6119 16.3086 61.2425 21.7395 57.0906 24.1366C55.1869 25.2357 53.4785 25.3143 51.1416 25.0904C49.4881 24.9343 48.6521 25.2817 48.4399 25.6128C48.2378 25.9325 48.4108 26.6106 48.8958 27.3342C50.622 29.9066 56.3653 37.6417 56.3866 37.6688C56.5234 37.8379 56.6375 38.0258 56.7327 38.1907C57.2796 39.1379 57.7754 41.0449 54.9355 43.1525C54.5438 43.5027 52.38 45.3158 44.4045 50.7662C44.1032 51.0304 43.7671 51.1567 43.4772 51.2564C42.1621 51.7056 41.0062 51.3243 40.3836 50.246C39.7391 49.1296 39.7547 47.4291 39.9702 45.0268C40.1476 43.0243 39.9095 41.5831 39.2088 40.3695C37.4339 37.2952 33.574 36.1803 30.6071 37.8932C27.6402 39.6062 26.6758 43.5064 28.4507 46.5807C29.2784 48.0142 30.2422 48.7714 32.2433 49.5782C34.566 50.515 35.9242 51.4505 36.5175 52.4781C37.0424 53.3873 36.9518 54.3755 36.3055 55.2166C35.9268 55.7059 35.2134 56.1685 34.7558 56.3368C28.5772 59.1542 27.3403 59.4962 26.264 59.7962L25.802 59.9277C23.7448 60.5571 21.8211 59.9425 20.9153 58.3737L0.895653 23.6986C-0.554553 21.1868 0.0971283 18.6567 2.54711 17.2422L30.3836 1.17081C32.2285 0.105687 34.0311 0.384311 35.7669 2.03211C35.887 2.14316 35.984 2.30142 36.0544 2.45248C36.0924 2.53768 39.9821 11.1286 41.3177 14.2084C41.3685 14.3257 41.4183 14.4604 41.4793 14.5661C41.638 14.841 41.9633 15.3073 42.396 15.2999C42.8638 15.2948 43.6431 14.7716 44.3978 13.3322L44.5214 13.0805C45.6787 10.873 46.2694 9.77082 48.1647 8.67659C52.3167 6.27946 57.6851 7.77513 60.1485 12.0419Z" fill="#1BD7EF"/>
</svg>
