<svg width="39" height="41" viewBox="0 0 39 41" fill="none" xmlns="http://www.w3.org/2000/svg">
<path d="M38.725 14.8865C38.8168 15.6353 38.7833 16.0355 38.6018 16.7916C38.0495 19.0799 35.8104 20.7623 33.434 20.6953C32.812 20.6733 32.3781 20.8272 32.1729 21.1304C31.9049 21.5468 31.9195 21.6004 33.6183 25.5187C34.5445 27.6548 35.2069 29.2621 35.2291 29.4325C35.2878 29.827 35.0907 30.4269 34.811 30.7367C34.5881 30.9792 34.3331 31.1069 31.4999 32.3353C28.0858 33.8155 28.1252 33.807 27.6833 33.4242C27.3931 33.1729 27.37 33.0798 27.3721 32.4276C27.3804 31.4122 27.2644 30.9053 26.809 29.9541C26.3494 29.0132 25.9756 28.5492 25.1863 27.9827C24.6487 27.5987 23.5398 27.1707 22.8824 27.0871C21.128 26.8621 19.3234 27.5756 18.1968 28.9386C17.1233 30.2444 16.7566 31.9463 17.1929 33.6088C17.4343 34.5241 18.0343 35.49 18.7238 36.0656C18.8965 36.2049 19.0941 36.4024 19.1699 36.4978C19.3409 36.7324 19.3465 37.1841 19.18 37.4962L19.0456 37.7431L15.6729 39.1797L12.3074 40.6132L11.8941 40.5354C11.6282 40.4792 11.3632 40.3456 11.1228 40.1496L10.7474 39.8407L5.48482 27.7027L0.222217 15.5647L0.259747 15.0943C0.276867 14.7952 0.375979 14.4867 0.512547 14.2645L0.731093 13.9128L4.1368 12.3934C7.2374 11.0063 7.55784 10.8499 7.68219 10.6591C7.99705 10.1711 7.81131 9.70293 7.05189 9.04647C5.78299 7.95062 5.1738 6.46611 5.30472 4.7377C5.49943 2.02157 7.94116 -0.108755 10.6995 0.0240303C12.765 0.131728 14.3705 1.22747 15.184 3.10366C15.5624 3.9766 15.6652 4.53244 15.6204 5.50337C15.5783 6.30167 15.5962 6.36277 15.8947 6.65327C16.3346 7.07109 16.2486 7.09126 19.8776 5.56961L23.1402 4.19781L23.5256 4.27062C23.7397 4.30655 24.062 4.43238 24.2426 4.5512L24.5773 4.76616L26.2937 8.62558C27.9757 12.4058 28.0131 12.4922 28.2532 12.628C28.3803 12.7016 28.6358 12.7538 28.8206 12.7421C29.1374 12.7164 29.1705 12.6935 29.6194 12.2157C30.8271 10.9206 32.2142 10.3193 33.8356 10.3963C35.3965 10.4739 36.8311 11.2152 37.7191 12.4074C38.193 13.0427 38.6436 14.1418 38.725 14.8865Z" fill="#6CB5F9"/>
</svg>
