<svg width="180" height="44" viewBox="0 0 180 44" fill="none" xmlns="http://www.w3.org/2000/svg">
<path d="M36.9814 12.6251C38.4595 15.1852 37.6378 18.4437 35.1467 19.882C34.0044 20.5414 32.9794 20.5886 31.5773 20.4543C30.5852 20.3606 30.0836 20.569 29.9562 20.7677C29.835 20.9595 29.9388 21.3664 30.2298 21.8005C31.2655 23.344 34.7115 27.985 34.7243 28.0013C34.8064 28.1028 34.8748 28.2155 34.9319 28.3144C35.2601 28.8828 35.5576 30.0269 33.8537 31.2915C33.6186 31.5016 32.3203 32.5895 27.535 35.8597C27.3542 36.0182 27.1526 36.0941 26.9787 36.1539C26.1896 36.4234 25.496 36.1946 25.1225 35.5476C24.7358 34.8778 24.7451 33.8575 24.8745 32.4161C24.9809 31.2146 24.838 30.3499 24.4176 29.6217C23.3527 27.7772 21.0367 27.1082 19.2566 28.136C17.4765 29.1637 16.8978 31.5039 17.9628 33.3484C18.4593 34.2085 19.0377 34.6629 20.2383 35.1469C21.6319 35.709 22.4468 36.2703 22.8028 36.8869C23.1177 37.4324 23.0634 38.0253 22.6756 38.53C22.4484 38.8235 22.0203 39.1011 21.7458 39.2021C18.0387 40.8925 17.2965 41.0977 16.6507 41.2777L16.3735 41.3566C15.1392 41.7343 13.985 41.3655 13.4415 40.4242L1.42972 19.6192C0.559593 18.1121 0.950598 16.5941 2.42059 15.7454L19.1225 6.1025C20.2294 5.46342 21.311 5.6306 22.3524 6.61928C22.4245 6.68591 22.4827 6.78087 22.525 6.8715C22.5478 6.92262 24.8816 12.0772 25.6829 13.9251C25.7134 13.9954 25.7433 14.0763 25.7799 14.1397C25.8751 14.3046 26.0703 14.5844 26.3299 14.5799C26.6106 14.5769 27.0782 14.2629 27.531 13.3994L27.6052 13.2483C28.2995 11.9238 28.654 11.2625 29.7911 10.606C32.2823 9.16769 35.5034 10.0651 36.9814 12.6251Z" fill="#1BD7EF"/>
<path d="M45.8025 33.1472L52.9115 13.7535C53.2648 12.8181 53.8157 12.1217 54.564 11.6644C55.3331 11.1864 56.1957 10.9473 57.1519 10.9473C58.1081 10.9473 58.9707 11.176 59.7398 11.6333C60.5089 12.0698 61.0597 12.7661 61.3923 13.7223L68.5325 33.1472H63.6373L62.1718 28.7509H52.0072L50.4794 33.1472H45.8025ZM53.348 24.8223H60.8623L57.7131 15.2501C57.63 14.9799 57.4533 14.8448 57.1831 14.8448C56.9544 14.8448 56.7881 14.9799 56.6842 15.2501L53.348 24.8223Z" fill="white"/>
<path d="M78.7755 16.8715C77.071 16.8715 75.5848 17.2248 74.3168 17.9316C73.0696 18.6383 72.103 19.6464 71.4171 20.956C70.7311 22.2447 70.3881 23.7622 70.3881 25.5082V40.0068H74.6598V31.1829H74.6909C75.169 31.9104 75.8342 32.4821 76.6864 32.8978C77.5595 33.3135 78.4949 33.5214 79.4926 33.5214C81.0516 33.5214 82.4027 33.1784 83.546 32.4925C84.6892 31.8065 85.5727 30.8711 86.1962 29.6863C86.8406 28.4807 87.1628 27.088 87.1628 25.5082C87.1628 23.8453 86.8302 22.3695 86.1651 21.0807C85.5207 19.7712 84.5749 18.7422 83.3277 17.9939C82.0805 17.2456 80.5631 16.8715 78.7755 16.8715ZM78.7755 20.5195C80.0435 20.5195 81.0308 20.9768 81.7376 21.8914C82.4651 22.7852 82.8288 23.8869 82.8288 25.1964C82.8288 26.506 82.4651 27.618 81.7376 28.5326C81.0308 29.4265 80.0435 29.8734 78.7755 29.8734C77.5075 29.8734 76.5098 29.4265 75.7822 28.5326C75.0755 27.618 74.7221 26.506 74.7221 25.1964C74.7221 23.8869 75.0755 22.7852 75.7822 21.8914C76.5098 20.9768 77.5075 20.5195 78.7755 20.5195Z" fill="white"/>
<path d="M98.5064 16.8715C96.8019 16.8715 95.3157 17.2248 94.0477 17.9316C92.8005 18.6383 91.8339 19.6464 91.148 20.956C90.462 22.2447 90.119 23.7622 90.119 25.5082V40.0068H94.3907V31.1829H94.4218C94.8999 31.9104 95.5651 32.4821 96.4173 32.8978C97.2904 33.3135 98.2257 33.5214 99.2235 33.5214C100.782 33.5214 102.134 33.1784 103.277 32.4925C104.42 31.8065 105.304 30.8711 105.927 29.6863C106.572 28.4807 106.894 27.088 106.894 25.5082C106.894 23.8453 106.561 22.3695 105.896 21.0807C105.252 19.7712 104.306 18.7422 103.059 17.9939C101.811 17.2456 100.294 16.8715 98.5064 16.8715ZM98.5064 20.5195C99.7743 20.5195 100.762 20.9768 101.468 21.8914C102.196 22.7852 102.56 23.8869 102.56 25.1964C102.56 26.506 102.196 27.618 101.468 28.5326C100.762 29.4265 99.7743 29.8734 98.5064 29.8734C97.2384 29.8734 96.2406 29.4265 95.5131 28.5326C94.8064 27.618 94.453 26.506 94.453 25.1964C94.453 23.8869 94.8064 22.7852 95.5131 21.8914C96.2406 20.9768 97.2384 20.5195 98.5064 20.5195Z" fill="white"/>
<path d="M110.006 33.1472V10.3861H114.277V33.1472H110.006Z" fill="white"/>
<path d="M118.318 33.1472V17.2456H122.621V33.1472H118.318ZM120.47 15.3436C119.742 15.3436 119.108 15.0838 118.568 14.5642C118.048 14.0237 117.788 13.3897 117.788 12.6622C117.788 11.9347 118.048 11.3111 118.568 10.7914C119.108 10.251 119.742 9.98074 120.47 9.98074C121.197 9.98074 121.821 10.251 122.341 10.7914C122.881 11.3111 123.151 11.9347 123.151 12.6622C123.151 13.3897 122.881 14.0237 122.341 14.5642C121.821 15.0838 121.197 15.3436 120.47 15.3436Z" fill="white"/>
<path d="M136.733 33.1472C135.029 33.1057 133.49 32.8043 132.119 32.243C130.747 31.661 129.572 30.8815 128.595 29.9046C127.618 28.9068 126.86 27.7532 126.319 26.4436C125.799 25.1341 125.54 23.731 125.54 22.2344C125.54 20.7377 125.799 19.3346 126.319 18.0251C126.86 16.7156 127.618 15.5723 128.595 14.5953C129.572 13.5976 130.747 12.8077 132.119 12.2257C133.49 11.6437 135.029 11.3423 136.733 11.3215H140.132V15.2501H136.827C135.517 15.2709 134.343 15.5931 133.303 16.2167C132.285 16.8195 131.474 17.6406 130.871 18.6799C130.289 19.7192 129.998 20.904 129.998 22.2344C129.998 23.5647 130.289 24.7599 130.871 25.82C131.474 26.8593 132.285 27.6804 133.303 28.2832C134.343 28.886 135.517 29.1978 136.827 29.2186H140.132V33.1472H136.733Z" fill="white"/>
<path d="M149.675 33.5214C148.22 33.5214 146.952 33.1472 145.871 32.3989C144.791 31.6506 143.949 30.6529 143.346 29.4057C142.764 28.1377 142.473 26.745 142.473 25.2276C142.473 23.6686 142.805 22.2551 143.471 20.9872C144.157 19.7192 145.134 18.7214 146.402 17.9939C147.669 17.2456 149.187 16.8715 150.954 16.8715C152.741 16.8715 154.248 17.2456 155.475 17.9939C156.701 18.7422 157.637 19.7504 158.281 21.0183C158.925 22.2863 159.248 23.6894 159.248 25.2276V33.1472H154.976V30.497H154.914C154.435 31.3284 153.781 32.0456 152.949 32.6484C152.139 33.2304 151.047 33.5214 149.675 33.5214ZM150.891 29.8734C152.139 29.8734 153.116 29.4161 153.822 28.5015C154.55 27.5869 154.914 26.4748 154.914 25.1652C154.914 23.8765 154.55 22.7852 153.822 21.8914C153.116 20.9768 152.139 20.5195 150.891 20.5195C149.623 20.5195 148.626 20.9768 147.898 21.8914C147.171 22.7852 146.807 23.8765 146.807 25.1652C146.807 26.4748 147.171 27.5869 147.898 28.5015C148.626 29.4161 149.623 29.8734 150.891 29.8734Z" fill="white"/>
<path d="M171.523 33.5214C169.818 33.5214 168.332 33.168 167.064 32.4613C165.817 31.7545 164.85 30.7568 164.164 29.468C163.478 28.1585 163.135 26.6307 163.135 24.8846V10.3861H167.407V19.2099H167.438C167.916 18.4824 168.582 17.9108 169.434 17.495C170.307 17.0793 171.242 16.8715 172.24 16.8715C173.799 16.8715 175.15 17.2144 176.293 17.9004C177.437 18.5863 178.32 19.5321 178.944 20.7377C179.588 21.9226 179.91 23.3049 179.91 24.8846C179.91 26.5475 179.578 28.0338 178.912 29.3433C178.268 30.6321 177.322 31.6506 176.075 32.3989C174.828 33.1472 173.31 33.5214 171.523 33.5214ZM171.523 29.8734C172.791 29.8734 173.778 29.4265 174.485 28.5326C175.212 27.618 175.576 26.506 175.576 25.1964C175.576 23.8869 175.212 22.7852 174.485 21.8914C173.778 20.9768 172.791 20.5195 171.523 20.5195C170.255 20.5195 169.257 20.9768 168.53 21.8914C167.823 22.7852 167.469 23.8869 167.469 25.1964C167.469 26.506 167.823 27.618 168.53 28.5326C169.257 29.4265 170.255 29.8734 171.523 29.8734Z" fill="white"/>
</svg>
