<svg width="186" height="50" viewBox="0 0 186 50" fill="none" xmlns="http://www.w3.org/2000/svg">
<path d="M42.725 23.293C42.8168 24.0418 42.7833 24.442 42.6018 25.1981C42.0495 27.4864 39.8104 29.1688 37.434 29.1018C36.812 29.0798 36.3781 29.2337 36.1729 29.5369C35.9049 29.9533 35.9195 30.0069 37.6183 33.9252C38.5445 36.0613 39.2069 37.6686 39.2291 37.839C39.2878 38.2335 39.0907 38.8334 38.811 39.1432C38.5881 39.3857 38.3331 39.5134 35.4999 40.7417C32.0858 42.222 32.1252 42.2135 31.6833 41.8307C31.3931 41.5794 31.37 41.4863 31.3721 40.8341C31.3804 39.8187 31.2644 39.3118 30.809 38.3606C30.3494 37.4197 29.9756 36.9557 29.1863 36.3892C28.6487 36.0052 27.5398 35.5772 26.8824 35.4936C25.128 35.2686 23.3234 35.9821 22.1968 37.3451C21.1233 38.6509 20.7566 40.3528 21.1929 42.0153C21.4343 42.9306 22.0343 43.8965 22.7238 44.4721C22.8965 44.6114 23.0941 44.8089 23.1699 44.9043C23.3409 45.1389 23.3465 45.5906 23.18 45.9027L23.0456 46.1496L19.6729 47.5862L16.3074 49.0197L15.8941 48.9419C15.6282 48.8857 15.3632 48.7521 15.1228 48.5561L14.7474 48.2472L9.48482 36.1092L4.22222 23.9712L4.25975 23.5008C4.27687 23.2017 4.37598 22.8932 4.51255 22.671L4.73109 22.3192L8.1368 20.7999C11.2374 19.4128 11.5578 19.2563 11.6822 19.0656C11.9971 18.5776 11.8113 18.1094 11.0519 17.453C9.78299 16.3571 9.1738 14.8726 9.30472 13.1442C9.49943 10.4281 11.9412 8.29774 14.6995 8.43053C16.765 8.53822 18.3705 9.63396 19.184 11.5102C19.5624 12.3831 19.6652 12.9389 19.6204 13.9099C19.5783 14.7082 19.5962 14.7693 19.8947 15.0598C20.3346 15.4776 20.2486 15.4978 23.8776 13.9761L27.1402 12.6043L27.5256 12.6771C27.7397 12.713 28.062 12.8389 28.2426 12.9577L28.5773 13.1727L30.2937 17.0321C31.9757 20.8123 32.0131 20.8987 32.2532 21.0345C32.3803 21.1081 32.6358 21.1603 32.8206 21.1486C33.1374 21.1229 33.1705 21.0999 33.6194 20.6222C34.8271 19.3271 36.2142 18.7257 37.8356 18.8028C39.3965 18.8804 40.8311 19.6217 41.7191 20.8139C42.193 21.4492 42.6436 22.5483 42.725 23.293Z" fill="#6CB5F9"/>
<path d="M58.8199 31.7398H50.0899L48.5899 35.9998H45.0199L52.4899 15.1198H56.4499L63.9199 35.9998H60.3199L58.8199 31.7398ZM57.8599 28.9498L54.4699 19.2598L51.0499 28.9498H57.8599ZM70.5878 21.8998C71.1678 21.1398 71.9578 20.4998 72.9578 19.9798C73.9578 19.4598 75.0878 19.1998 76.3478 19.1998C77.7878 19.1998 79.0978 19.5598 80.2778 20.2798C81.4778 20.9798 82.4178 21.9698 83.0978 23.2498C83.7778 24.5298 84.1178 25.9998 84.1178 27.6598C84.1178 29.3198 83.7778 30.8098 83.0978 32.1298C82.4178 33.4298 81.4778 34.4498 80.2778 35.1898C79.0978 35.9098 77.7878 36.2698 76.3478 36.2698C75.0878 36.2698 73.9678 36.0198 72.9878 35.5198C72.0078 34.9998 71.2078 34.3598 70.5878 33.5998V43.8598H67.1678V19.4698H70.5878V21.8998ZM80.6378 27.6598C80.6378 26.5198 80.3978 25.5398 79.9178 24.7198C79.4578 23.8798 78.8378 23.2498 78.0578 22.8298C77.2978 22.3898 76.4778 22.1698 75.5978 22.1698C74.7378 22.1698 73.9178 22.3898 73.1378 22.8298C72.3778 23.2698 71.7578 23.9098 71.2778 24.7498C70.8178 25.5898 70.5878 26.5798 70.5878 27.7198C70.5878 28.8598 70.8178 29.8598 71.2778 30.7198C71.7578 31.5598 72.3778 32.1998 73.1378 32.6398C73.9178 33.0798 74.7378 33.2998 75.5978 33.2998C76.4778 33.2998 77.2978 33.0798 78.0578 32.6398C78.8378 32.1798 79.4578 31.5198 79.9178 30.6598C80.3978 29.7998 80.6378 28.7998 80.6378 27.6598ZM90.9199 21.8998C91.4999 21.1398 92.2899 20.4998 93.2899 19.9798C94.2899 19.4598 95.4199 19.1998 96.6799 19.1998C98.1199 19.1998 99.4299 19.5598 100.61 20.2798C101.81 20.9798 102.75 21.9698 103.43 23.2498C104.11 24.5298 104.45 25.9998 104.45 27.6598C104.45 29.3198 104.11 30.8098 103.43 32.1298C102.75 33.4298 101.81 34.4498 100.61 35.1898C99.4299 35.9098 98.1199 36.2698 96.6799 36.2698C95.4199 36.2698 94.2999 36.0198 93.3199 35.5198C92.3399 34.9998 91.5399 34.3598 90.9199 33.5998V43.8598H87.4999V19.4698H90.9199V21.8998ZM100.97 27.6598C100.97 26.5198 100.73 25.5398 100.25 24.7198C99.7899 23.8798 99.1699 23.2498 98.3899 22.8298C97.6299 22.3898 96.8099 22.1698 95.9299 22.1698C95.0699 22.1698 94.2499 22.3898 93.4699 22.8298C92.7099 23.2698 92.0899 23.9098 91.6099 24.7498C91.1499 25.5898 90.9199 26.5798 90.9199 27.7198C90.9199 28.8598 91.1499 29.8598 91.6099 30.7198C92.0899 31.5598 92.7099 32.1998 93.4699 32.6398C94.2499 33.0798 95.0699 33.2998 95.9299 33.2998C96.8099 33.2998 97.6299 33.0798 98.3899 32.6398C99.1699 32.1798 99.7899 31.5198 100.25 30.6598C100.73 29.7998 100.97 28.7998 100.97 27.6598ZM111.252 13.7998V35.9998H107.832V13.7998H111.252ZM117.482 17.2798C116.862 17.2798 116.342 17.0698 115.922 16.6498C115.502 16.2298 115.292 15.7098 115.292 15.0898C115.292 14.4698 115.502 13.9498 115.922 13.5298C116.342 13.1098 116.862 12.8998 117.482 12.8998C118.082 12.8998 118.592 13.1098 119.012 13.5298C119.432 13.9498 119.642 14.4698 119.642 15.0898C119.642 15.7098 119.432 16.2298 119.012 16.6498C118.592 17.0698 118.082 17.2798 117.482 17.2798ZM119.162 19.4698V35.9998H115.742V19.4698H119.162ZM122.512 25.5298C122.512 23.4898 122.982 21.6598 123.922 20.0398C124.882 18.4198 126.172 17.1598 127.792 16.2598C129.432 15.3398 131.222 14.8798 133.162 14.8798C135.382 14.8798 137.352 15.4298 139.072 16.5298C140.812 17.6098 142.072 19.1498 142.852 21.1498H138.742C138.202 20.0498 137.452 19.2298 136.492 18.6898C135.532 18.1498 134.422 17.8798 133.162 17.8798C131.782 17.8798 130.552 18.1898 129.472 18.8098C128.392 19.4298 127.542 20.3198 126.922 21.4798C126.322 22.6398 126.022 23.9898 126.022 25.5298C126.022 27.0698 126.322 28.4198 126.922 29.5798C127.542 30.7398 128.392 31.6398 129.472 32.2798C130.552 32.8998 131.782 33.2098 133.162 33.2098C134.422 33.2098 135.532 32.9398 136.492 32.3998C137.452 31.8598 138.202 31.0398 138.742 29.9398H142.852C142.072 31.9398 140.812 33.4798 139.072 34.5598C137.352 35.6398 135.382 36.1798 133.162 36.1798C131.202 36.1798 129.412 35.7298 127.792 34.8298C126.172 33.9098 124.882 32.6398 123.922 31.0198C122.982 29.3998 122.512 27.5698 122.512 25.5298ZM145.715 27.6598C145.715 25.9998 146.055 24.5298 146.735 23.2498C147.435 21.9698 148.375 20.9798 149.555 20.2798C150.755 19.5598 152.075 19.1998 153.515 19.1998C154.815 19.1998 155.945 19.4598 156.905 19.9798C157.885 20.4798 158.665 21.1098 159.245 21.8698V19.4698H162.695V35.9998H159.245V33.5398C158.665 34.3198 157.875 34.9698 156.875 35.4898C155.875 36.0098 154.735 36.2698 153.455 36.2698C152.035 36.2698 150.735 35.9098 149.555 35.1898C148.375 34.4498 147.435 33.4298 146.735 32.1298C146.055 30.8098 145.715 29.3198 145.715 27.6598ZM159.245 27.7198C159.245 26.5798 159.005 25.5898 158.525 24.7498C158.065 23.9098 157.455 23.2698 156.695 22.8298C155.935 22.3898 155.115 22.1698 154.235 22.1698C153.355 22.1698 152.535 22.3898 151.775 22.8298C151.015 23.2498 150.395 23.8798 149.915 24.7198C149.455 25.5398 149.225 26.5198 149.225 27.6598C149.225 28.7998 149.455 29.7998 149.915 30.6598C150.395 31.5198 151.015 32.1798 151.775 32.6398C152.555 33.0798 153.375 33.2998 154.235 33.2998C155.115 33.2998 155.935 33.0798 156.695 32.6398C157.455 32.1998 158.065 31.5598 158.525 30.7198C159.005 29.8598 159.245 28.8598 159.245 27.7198ZM170.607 21.9298C171.187 21.1298 171.977 20.4798 172.977 19.9798C173.997 19.4598 175.127 19.1998 176.367 19.1998C177.827 19.1998 179.147 19.5498 180.327 20.2498C181.507 20.9498 182.437 21.9498 183.117 23.2498C183.797 24.5298 184.137 25.9998 184.137 27.6598C184.137 29.3198 183.797 30.8098 183.117 32.1298C182.437 33.4298 181.497 34.4498 180.297 35.1898C179.117 35.9098 177.807 36.2698 176.367 36.2698C175.087 36.2698 173.947 36.0198 172.947 35.5198C171.967 35.0198 171.187 34.3798 170.607 33.5998V35.9998H167.187V13.7998H170.607V21.9298ZM180.657 27.6598C180.657 26.5198 180.417 25.5398 179.937 24.7198C179.477 23.8798 178.857 23.2498 178.077 22.8298C177.317 22.3898 176.497 22.1698 175.617 22.1698C174.757 22.1698 173.937 22.3898 173.157 22.8298C172.397 23.2698 171.777 23.9098 171.297 24.7498C170.837 25.5898 170.607 26.5798 170.607 27.7198C170.607 28.8598 170.837 29.8598 171.297 30.7198C171.777 31.5598 172.397 32.1998 173.157 32.6398C173.937 33.0798 174.757 33.2998 175.617 33.2998C176.497 33.2998 177.317 33.0798 178.077 32.6398C178.857 32.1798 179.477 31.5198 179.937 30.6598C180.417 29.7998 180.657 28.7998 180.657 27.6598Z" fill="white"/>
</svg>
