<svg width="156" height="123" viewBox="0 0 156 123" fill="none" xmlns="http://www.w3.org/2000/svg">
<path d="M107.165 36.2119C107.306 37.3629 107.254 37.9782 106.975 39.1404C106.126 42.6579 102.685 45.244 99.0316 45.141C98.0754 45.1073 97.4084 45.3438 97.093 45.8099C96.6811 46.45 96.7035 46.5323 99.3149 52.5554C100.739 55.839 101.757 58.3096 101.791 58.5716C101.881 59.178 101.578 60.1001 101.148 60.5765C100.806 60.9492 100.414 61.1454 96.0585 63.0336C90.8105 65.309 90.871 65.2959 90.1917 64.7076C89.7456 64.3212 89.7101 64.1782 89.7135 63.1756C89.7262 61.6147 89.5478 60.8355 88.8477 59.3734C88.1413 57.9271 87.5667 57.2139 86.3534 56.343C85.5271 55.7527 83.8226 55.0949 82.812 54.9664C80.1151 54.6204 77.3411 55.7173 75.6093 57.8124C73.9592 59.8196 73.3955 62.4357 74.0661 64.9913C74.4372 66.3982 75.3596 67.883 76.4194 68.7678C76.685 68.982 76.9886 69.2855 77.1052 69.4322C77.3681 69.7928 77.3767 70.4872 77.1208 70.9669L76.9141 71.3464L71.7297 73.5548L66.5564 75.7583L65.921 75.6387C65.5123 75.5523 65.105 75.347 64.7355 75.0457L64.1584 74.5708L56.0689 55.9126L47.9794 37.2544L48.037 36.5313C48.0634 36.0716 48.2157 35.5973 48.4256 35.2558L48.7616 34.7151L53.9967 32.3796C58.7629 30.2474 59.2555 30.0069 59.4466 29.7137C59.9306 28.9635 59.6451 28.2439 58.4777 27.2348C56.5272 25.5503 55.5908 23.2683 55.792 20.6115C56.0913 16.4363 59.8447 13.1616 64.0847 13.3657C67.2598 13.5313 69.7277 15.2156 70.9781 18.0997C71.5599 19.4415 71.7179 20.2959 71.6491 21.7884C71.5843 23.0156 71.6117 23.1095 72.0707 23.556C72.7468 24.1983 72.6147 24.2293 78.1931 21.8902L83.2083 19.7816L83.8007 19.8935C84.1297 19.9487 84.6251 20.1421 84.9028 20.3248L85.4173 20.6552L88.0556 26.5878C90.6412 32.3987 90.6988 32.5315 91.0679 32.7402C91.2632 32.8534 91.6559 32.9336 91.9399 32.9156C92.427 32.876 92.4779 32.8408 93.1679 32.1065C95.0244 30.1157 97.1565 29.1913 99.6489 29.3097C102.048 29.429 104.254 30.5685 105.618 32.4011C106.347 33.3777 107.04 35.0671 107.165 36.2119Z" fill="#6CB5F9"/>
<path d="M16.302 105.314H6.699L5.049 110H1.122L9.339 87.032H13.695L21.912 110H17.952L16.302 105.314ZM15.246 102.245L11.517 91.586L7.755 102.245H15.246ZM29.2468 94.49C29.8848 93.654 30.7538 92.95 31.8538 92.378C32.9538 91.806 34.1968 91.52 35.5828 91.52C37.1668 91.52 38.6078 91.916 39.9058 92.708C41.2258 93.478 42.2598 94.567 43.0078 95.975C43.7558 97.383 44.1298 99 44.1298 100.826C44.1298 102.652 43.7558 104.291 43.0078 105.743C42.2598 107.173 41.2258 108.295 39.9058 109.109C38.6078 109.901 37.1668 110.297 35.5828 110.297C34.1968 110.297 32.9648 110.022 31.8868 109.472C30.8088 108.9 29.9288 108.196 29.2468 107.36V118.646H25.4848V91.817H29.2468V94.49ZM40.3018 100.826C40.3018 99.572 40.0378 98.494 39.5098 97.592C39.0038 96.668 38.3218 95.975 37.4638 95.513C36.6278 95.029 35.7258 94.787 34.7578 94.787C33.8118 94.787 32.9098 95.029 32.0518 95.513C31.2158 95.997 30.5338 96.701 30.0058 97.625C29.4998 98.549 29.2468 99.638 29.2468 100.892C29.2468 102.146 29.4998 103.246 30.0058 104.192C30.5338 105.116 31.2158 105.82 32.0518 106.304C32.9098 106.788 33.8118 107.03 34.7578 107.03C35.7258 107.03 36.6278 106.788 37.4638 106.304C38.3218 105.798 39.0038 105.072 39.5098 104.126C40.0378 103.18 40.3018 102.08 40.3018 100.826ZM51.612 94.49C52.25 93.654 53.119 92.95 54.219 92.378C55.319 91.806 56.562 91.52 57.948 91.52C59.532 91.52 60.973 91.916 62.271 92.708C63.591 93.478 64.625 94.567 65.373 95.975C66.121 97.383 66.495 99 66.495 100.826C66.495 102.652 66.121 104.291 65.373 105.743C64.625 107.173 63.591 108.295 62.271 109.109C60.973 109.901 59.532 110.297 57.948 110.297C56.562 110.297 55.33 110.022 54.252 109.472C53.174 108.9 52.294 108.196 51.612 107.36V118.646H47.85V91.817H51.612V94.49ZM62.667 100.826C62.667 99.572 62.403 98.494 61.875 97.592C61.369 96.668 60.687 95.975 59.829 95.513C58.993 95.029 58.091 94.787 57.123 94.787C56.177 94.787 55.275 95.029 54.417 95.513C53.581 95.997 52.899 96.701 52.371 97.625C51.865 98.549 51.612 99.638 51.612 100.892C51.612 102.146 51.865 103.246 52.371 104.192C52.899 105.116 53.581 105.82 54.417 106.304C55.275 106.788 56.177 107.03 57.123 107.03C58.091 107.03 58.993 106.788 59.829 106.304C60.687 105.798 61.369 105.072 61.875 104.126C62.403 103.18 62.667 102.08 62.667 100.826ZM73.9772 85.58V110H70.2152V85.58H73.9772ZM80.8304 89.408C80.1484 89.408 79.5764 89.177 79.1144 88.715C78.6524 88.253 78.4214 87.681 78.4214 86.999C78.4214 86.317 78.6524 85.745 79.1144 85.283C79.5764 84.821 80.1484 84.59 80.8304 84.59C81.4904 84.59 82.0514 84.821 82.5134 85.283C82.9754 85.745 83.2064 86.317 83.2064 86.999C83.2064 87.681 82.9754 88.253 82.5134 88.715C82.0514 89.177 81.4904 89.408 80.8304 89.408ZM82.6784 91.817V110H78.9164V91.817H82.6784ZM86.3636 98.483C86.3636 96.239 86.8806 94.226 87.9146 92.444C88.9706 90.662 90.3896 89.276 92.1716 88.286C93.9756 87.274 95.9446 86.768 98.0786 86.768C100.521 86.768 102.688 87.373 104.58 88.583C106.494 89.771 107.88 91.465 108.738 93.665H104.217C103.623 92.455 102.798 91.553 101.742 90.959C100.686 90.365 99.4646 90.068 98.0786 90.068C96.5606 90.068 95.2076 90.409 94.0196 91.091C92.8316 91.773 91.8966 92.752 91.2146 94.028C90.5546 95.304 90.2246 96.789 90.2246 98.483C90.2246 100.177 90.5546 101.662 91.2146 102.938C91.8966 104.214 92.8316 105.204 94.0196 105.908C95.2076 106.59 96.5606 106.931 98.0786 106.931C99.4646 106.931 100.686 106.634 101.742 106.04C102.798 105.446 103.623 104.544 104.217 103.334H108.738C107.88 105.534 106.494 107.228 104.58 108.416C102.688 109.604 100.521 110.198 98.0786 110.198C95.9226 110.198 93.9536 109.703 92.1716 108.713C90.3896 107.701 88.9706 106.304 87.9146 104.522C86.8806 102.74 86.3636 100.727 86.3636 98.483ZM111.887 100.826C111.887 99 112.261 97.383 113.009 95.975C113.779 94.567 114.813 93.478 116.111 92.708C117.431 91.916 118.883 91.52 120.467 91.52C121.897 91.52 123.14 91.806 124.196 92.378C125.274 92.928 126.132 93.621 126.77 94.457V91.817H130.565V110H126.77V107.294C126.132 108.152 125.263 108.867 124.163 109.439C123.063 110.011 121.809 110.297 120.401 110.297C118.839 110.297 117.409 109.901 116.111 109.109C114.813 108.295 113.779 107.173 113.009 105.743C112.261 104.291 111.887 102.652 111.887 100.826ZM126.77 100.892C126.77 99.638 126.506 98.549 125.978 97.625C125.472 96.701 124.801 95.997 123.965 95.513C123.129 95.029 122.227 94.787 121.259 94.787C120.291 94.787 119.389 95.029 118.553 95.513C117.717 95.975 117.035 96.668 116.507 97.592C116.001 98.494 115.748 99.572 115.748 100.826C115.748 102.08 116.001 103.18 116.507 104.126C117.035 105.072 117.717 105.798 118.553 106.304C119.411 106.788 120.313 107.03 121.259 107.03C122.227 107.03 123.129 106.788 123.965 106.304C124.801 105.82 125.472 105.116 125.978 104.192C126.506 103.246 126.77 102.146 126.77 100.892ZM139.268 94.523C139.906 93.643 140.775 92.928 141.875 92.378C142.997 91.806 144.24 91.52 145.604 91.52C147.21 91.52 148.662 91.905 149.96 92.675C151.258 93.445 152.281 94.545 153.029 95.975C153.777 97.383 154.151 99 154.151 100.826C154.151 102.652 153.777 104.291 153.029 105.743C152.281 107.173 151.247 108.295 149.927 109.109C148.629 109.901 147.188 110.297 145.604 110.297C144.196 110.297 142.942 110.022 141.842 109.472C140.764 108.922 139.906 108.218 139.268 107.36V110H135.506V85.58H139.268V94.523ZM150.323 100.826C150.323 99.572 150.059 98.494 149.531 97.592C149.025 96.668 148.343 95.975 147.485 95.513C146.649 95.029 145.747 94.787 144.779 94.787C143.833 94.787 142.931 95.029 142.073 95.513C141.237 95.997 140.555 96.701 140.027 97.625C139.521 98.549 139.268 99.638 139.268 100.892C139.268 102.146 139.521 103.246 140.027 104.192C140.555 105.116 141.237 105.82 142.073 106.304C142.931 106.788 143.833 107.03 144.779 107.03C145.747 107.03 146.649 106.788 147.485 106.304C148.343 105.798 149.025 105.072 149.531 104.126C150.059 103.18 150.323 102.08 150.323 100.826Z" fill="#1D2532"/>
</svg>
