<svg width="135" height="114" viewBox="0 0 135 114" fill="none" xmlns="http://www.w3.org/2000/svg">
<path d="M91.1485 21.0419C93.6119 25.3086 92.2425 30.7395 88.0906 33.1366C86.1869 34.2357 84.4785 34.3143 82.1416 34.0904C80.4881 33.9343 79.6521 34.2817 79.4399 34.6128C79.2378 34.9325 79.4108 35.6106 79.8958 36.3342C81.622 38.9066 87.3653 46.6417 87.3866 46.6688C87.5234 46.8379 87.6375 47.0258 87.7327 47.1907C88.2796 48.1379 88.7754 50.0449 85.9355 52.1525C85.5438 52.5027 83.38 54.3158 75.4045 59.7662C75.1032 60.0304 74.7671 60.1567 74.4772 60.2564C73.1621 60.7056 72.0062 60.3243 71.3836 59.246C70.7391 58.1296 70.7547 56.4291 70.9702 54.0268C71.1476 52.0243 70.9095 50.5831 70.2088 49.3695C68.4339 46.2952 64.574 45.1803 61.6071 46.8932C58.6402 48.6062 57.6758 52.5064 59.4507 55.5807C60.2784 57.0142 61.2422 57.7714 63.2433 58.5782C65.566 59.515 66.9242 60.4505 67.5174 61.4781C68.0424 62.3873 67.9518 63.3755 67.3055 64.2166C66.9268 64.7059 66.2134 65.1685 65.7558 65.3368C59.5772 68.1542 58.3403 68.4962 57.264 68.7962L56.802 68.9277C54.7448 69.5572 52.8211 68.9425 51.9153 67.3737L31.8957 32.6986C30.4454 30.1868 31.0971 27.6567 33.5471 26.2422L61.3836 10.1708C63.2285 9.10569 65.0311 9.38431 66.7669 11.0321C66.887 11.1432 66.984 11.3014 67.0544 11.4525C67.0924 11.5377 70.9821 20.1286 72.3177 23.2084C72.3685 23.3257 72.4183 23.4604 72.4793 23.5661C72.638 23.841 72.9633 24.3073 73.396 24.2999C73.8638 24.2948 74.6431 23.7716 75.3978 22.3322L75.5214 22.0805C76.6787 19.873 77.2694 18.7708 79.1647 17.6766C83.3167 15.2795 88.6851 16.7751 91.1485 21.0419Z" fill="#019FE4"/>
<path d="M0 106.166L7.10897 86.7727C7.46234 85.8374 8.01318 85.141 8.76149 84.6837C9.53059 84.2056 10.3932 83.9666 11.3494 83.9666C12.3056 83.9666 13.1682 84.1952 13.9373 84.6525C14.7064 85.089 15.2573 85.7854 15.5898 86.7416L22.73 106.166H17.8348L16.3693 101.77H6.20476L4.67695 106.166H0ZM7.54548 97.8415H15.0598L11.9106 88.2694C11.8275 87.9991 11.6508 87.864 11.3806 87.864C11.1519 87.864 10.9856 87.9991 10.8817 88.2694L7.54548 97.8415Z" fill="#1D2532"/>
<path d="M32.973 89.8907C31.2685 89.8907 29.7823 90.2441 28.5143 90.9508C27.2671 91.6576 26.3005 92.6657 25.6146 93.9752C24.9286 95.264 24.5857 96.7814 24.5857 98.5275V113.026H28.8573V104.202H28.8885C29.3665 104.93 30.0317 105.501 30.884 105.917C31.757 106.333 32.6924 106.541 33.6901 106.541C35.2491 106.541 36.6002 106.198 37.7435 105.512C38.8867 104.826 39.7702 103.89 40.3938 102.706C41.0381 101.5 41.3603 100.107 41.3603 98.5275C41.3603 96.8646 41.0277 95.3887 40.3626 94.1C39.7182 92.7904 38.7724 91.7615 37.5252 91.0132C36.278 90.2649 34.7606 89.8907 32.973 89.8907ZM32.973 93.5387C34.241 93.5387 35.2283 93.996 35.9351 94.9106C36.6626 95.8045 37.0263 96.9061 37.0263 98.2157C37.0263 99.5252 36.6626 100.637 35.9351 101.552C35.2283 102.446 34.241 102.893 32.973 102.893C31.705 102.893 30.7073 102.446 29.9797 101.552C29.273 100.637 28.9196 99.5252 28.9196 98.2157C28.9196 96.9061 29.273 95.8045 29.9797 94.9106C30.7073 93.996 31.705 93.5387 32.973 93.5387Z" fill="#1D2532"/>
<path d="M52.7039 89.8907C50.9994 89.8907 49.5132 90.2441 48.2452 90.9508C46.998 91.6576 46.0314 92.6657 45.3455 93.9752C44.6595 95.264 44.3165 96.7814 44.3165 98.5275V113.026H48.5882V104.202H48.6193C49.0974 104.93 49.7626 105.501 50.6148 105.917C51.4879 106.333 52.4233 106.541 53.421 106.541C54.98 106.541 56.3311 106.198 57.4744 105.512C58.6176 104.826 59.5011 103.89 60.1246 102.706C60.769 101.5 61.0912 100.107 61.0912 98.5275C61.0912 96.8646 60.7586 95.3887 60.0935 94.1C59.4491 92.7904 58.5033 91.7615 57.2561 91.0132C56.0089 90.2649 54.4915 89.8907 52.7039 89.8907ZM52.7039 93.5387C53.9718 93.5387 54.9592 93.996 55.666 94.9106C56.3935 95.8045 56.7572 96.9061 56.7572 98.2157C56.7572 99.5252 56.3935 100.637 55.666 101.552C54.9592 102.446 53.9718 102.893 52.7039 102.893C51.4359 102.893 50.4382 102.446 49.7106 101.552C49.0039 100.637 48.6505 99.5252 48.6505 98.2157C48.6505 96.9061 49.0039 95.8045 49.7106 94.9106C50.4382 93.996 51.4359 93.5387 52.7039 93.5387Z" fill="#1D2532"/>
<path d="M64.2033 106.166V83.4053H68.4749V106.166H64.2033Z" fill="#1D2532"/>
<path d="M72.5159 106.166V90.2649H76.8187V106.166H72.5159ZM74.6673 88.3629C73.9397 88.3629 73.3058 88.1031 72.7653 87.5834C72.2457 87.043 71.9858 86.409 71.9858 85.6815C71.9858 84.9539 72.2457 84.3303 72.7653 83.8107C73.3058 83.2702 73.9397 83 74.6673 83C75.3948 83 76.0184 83.2702 76.5381 83.8107C77.0785 84.3303 77.3487 84.9539 77.3487 85.6815C77.3487 86.409 77.0785 87.043 76.5381 87.5834C76.0184 88.1031 75.3948 88.3629 74.6673 88.3629Z" fill="#1D2532"/>
<path d="M90.9306 106.166C89.2262 106.125 87.688 105.824 86.3161 105.262C84.9441 104.68 83.7697 103.901 82.7928 102.924C81.8158 101.926 81.0571 100.772 80.5166 99.4629C79.997 98.1533 79.7371 96.7502 79.7371 95.2536C79.7371 93.757 79.997 92.3539 80.5166 91.0444C81.0571 89.7348 81.8158 88.5916 82.7928 87.6146C83.7697 86.6168 84.9441 85.827 86.3161 85.2449C87.688 84.6629 89.2262 84.3615 90.9306 84.3407H94.3292V88.2694H91.0242C89.7146 88.2902 88.5402 88.6123 87.5009 89.2359C86.4824 89.8387 85.6717 90.6598 85.0689 91.6991C84.4868 92.7385 84.1958 93.9233 84.1958 95.2536C84.1958 96.5839 84.4868 97.7792 85.0689 98.8393C85.6717 99.8786 86.4824 100.7 87.5009 101.302C88.5402 101.905 89.7146 102.217 91.0242 102.238H94.3292V106.166H90.9306Z" fill="#1D2532"/>
<path d="M103.873 106.541C102.418 106.541 101.15 106.166 100.069 105.418C98.9881 104.67 98.1462 103.672 97.5434 102.425C96.9614 101.157 96.6704 99.7643 96.6704 98.2469C96.6704 96.6879 97.003 95.2744 97.6681 94.0064C98.3541 92.7385 99.331 91.7407 100.599 91.0132C101.867 90.2649 103.384 89.8907 105.151 89.8907C106.939 89.8907 108.446 90.2649 109.672 91.0132C110.899 91.7615 111.834 92.7696 112.478 94.0376C113.123 95.3056 113.445 96.7087 113.445 98.2469V106.166H109.173V103.516H109.111C108.633 104.348 107.978 105.065 107.147 105.668C106.336 106.25 105.245 106.541 103.873 106.541ZM105.089 102.893C106.336 102.893 107.313 102.435 108.02 101.521C108.747 100.606 109.111 99.494 109.111 98.1845C109.111 96.8957 108.747 95.8045 108.02 94.9106C107.313 93.996 106.336 93.5387 105.089 93.5387C103.821 93.5387 102.823 93.996 102.096 94.9106C101.368 95.8045 101.004 96.8957 101.004 98.1845C101.004 99.494 101.368 100.606 102.096 101.521C102.823 102.435 103.821 102.893 105.089 102.893Z" fill="#1D2532"/>
<path d="M125.72 106.541C124.016 106.541 122.53 106.187 121.262 105.481C120.014 104.774 119.048 103.776 118.362 102.487C117.676 101.178 117.333 99.6499 117.333 97.9039V83.4053H121.605V92.2292H121.636C122.114 91.5017 122.779 90.93 123.631 90.5143C124.504 90.0986 125.44 89.8907 126.437 89.8907C127.996 89.8907 129.348 90.2337 130.491 90.9196C131.634 91.6056 132.518 92.5514 133.141 93.757C133.785 94.9418 134.108 96.3241 134.108 97.9039C134.108 99.5668 133.775 101.053 133.11 102.363C132.466 103.651 131.52 104.67 130.273 105.418C129.025 106.166 127.508 106.541 125.72 106.541ZM125.72 102.893C126.988 102.893 127.976 102.446 128.682 101.552C129.41 100.637 129.774 99.5252 129.774 98.2157C129.774 96.9061 129.41 95.8045 128.682 94.9106C127.976 93.996 126.988 93.5387 125.72 93.5387C124.452 93.5387 123.455 93.996 122.727 94.9106C122.02 95.8045 121.667 96.9061 121.667 98.2157C121.667 99.5252 122.02 100.637 122.727 101.552C123.455 102.446 124.452 102.893 125.72 102.893Z" fill="#1D2532"/>
</svg>
